<svg xmlns="http://www.w3.org/2000/svg" width="391.757" height="133.92" viewBox="0 0 391.757 133.92">
  <g id="Group_780" data-name="Group 780" transform="translate(-225.066 -283.356)">
    <path id="Path_1568" data-name="Path 1568" d="M476.032,304.264l3.173,51.1,14.94,9.638s15.413,2.882,17.02,2.606,17.266-10.769,17.266-10.769l8.409-20.9V316.879l-9.056-12.615-11.8-8.3-2.43-3.438-9.227-2.84Z" fill="#90ce3e"/>
    <path id="Path_1569" data-name="Path 1569" d="M230.058,307.609a35.065,35.065,0,0,1,13.127-11.975q7.6-3.836,18.193-3.838,15.658,0,23.182,6.832t7.523,23.412V368.4H280.415l-2.3-3.992a37.136,37.136,0,0,1-21.954,6.448,61.155,61.155,0,0,1-12.129-1.381,23.454,23.454,0,0,1-16.888-13.357,23.123,23.123,0,0,1-2.072-9.979,25.748,25.748,0,0,1,2.149-9.979,23.426,23.426,0,0,1,6.218-8.367,23.14,23.14,0,0,1,10.44-4.99,91.131,91.131,0,0,1,10.133-1.919q5.217-.69,9.825-1.535a55.01,55.01,0,0,0,8.137-2.073,8.8,8.8,0,0,0,4.913-3.531q-.771-8.751-5.067-13.28t-13.049-4.529a30.078,30.078,0,0,0-8.521,1.152,27.713,27.713,0,0,0-7.062,3.147,30.109,30.109,0,0,0-5.527,4.452,33.3,33.3,0,0,0-4.069,5.066Zm46.979,52.352V318.049a37.393,37.393,0,0,1-9.442,4.3q-5.451,1.691-13.279,3.838a19.058,19.058,0,0,0-8.751,5.066,20.812,20.812,0,0,0-4.836,7.983,23.494,23.494,0,0,0-1.075,9.289,22.846,22.846,0,0,0,2.456,8.827,19.285,19.285,0,0,0,5.681,6.678,14.879,14.879,0,0,0,8.674,2.841,45.4,45.4,0,0,0,11.054-1.3A20.37,20.37,0,0,0,277.037,359.961Z" fill="#353535"/>
    <path id="Path_1570" data-name="Path 1570" d="M401.7,288.414c-1.74-.912-3.426-1.76-5.069-2.524s-3.373-1.611-5.218-2.534a50.188,50.188,0,0,1-4.369,8.282,34.556,34.556,0,0,1-6.84,7.837,38.71,38.71,0,0,0-12.354-6.988,48.311,48.311,0,0,0-16.194-2.535q-14.125,0-23.574,5.992a40.066,40.066,0,0,0-14.274,15.048,42.339,42.339,0,0,0-.307,38.993,38.7,38.7,0,0,0,14.2,15.037q9.529,6,23.956,5.992a47.533,47.533,0,0,0,19.036-3.531,39.165,39.165,0,0,0,13.436-9.29,37.778,37.778,0,0,0,7.9-13.129,42.078,42.078,0,0,0,2.46-14.963,43.066,43.066,0,0,0-3-14.889,38.32,38.32,0,0,0-8.367-12.98,87.949,87.949,0,0,0,10.372-6.055A34.973,34.973,0,0,0,401.7,288.414Zm-27.17,59.874a32.821,32.821,0,0,1-8.144,13.6,19.277,19.277,0,0,1-14.115,5.451q-8.907,0-14.666-5.451a32.972,32.972,0,0,1-8.526-13.6,52.493,52.493,0,0,1-2.609-17.731,54.756,54.756,0,0,1,3.076-17.731,35.187,35.187,0,0,1,8.515-13.584,19.666,19.666,0,0,1,27.18,0,35.188,35.188,0,0,1,8.515,13.584,55.94,55.94,0,0,1,3.15,17.731A53.32,53.32,0,0,1,374.528,348.288Z" fill="#353535"/>
    <path id="Path_1571" data-name="Path 1571" d="M325.262,417.051a12.65,12.65,0,0,1-6.123-2.223,21.817,21.817,0,0,1-6.355-7.2,18.773,18.773,0,0,1-2.457-11.438,15.091,15.091,0,0,1,5.527-9.826q4.836-4.145,14.355-4.145h37.153a36.533,36.533,0,0,0,11.207-1.459,13.294,13.294,0,0,0,6.372-3.838,5.533,5.533,0,0,0,1.074-5.3q-.842-2.919-4.682-5.987,1.842-1.229,3.377-2.457a22.392,22.392,0,0,1,9.058,9.825,16.68,16.68,0,0,1,.768,11.975,15.519,15.519,0,0,1-7.062,8.675q-5.373,3.3-15.2,3.3H335.889q-7.52,0-10.977,1.842t-4.221,4.606a9.448,9.448,0,0,0,.46,5.987l.025.064c1.586,4.134,5.378,6.5,9.835,7.434a15.642,15.642,0,0,0,3.206.144A43.886,43.886,0,0,1,325.262,417.051Z" fill="#353535"/>
    <path id="Path_1572" data-name="Path 1572" d="M461.266,291.643q-.462,2.763-1.075,5.45t-1.229,5.6q-2.611-1.687-8.29-1.689a36.182,36.182,0,0,0-6.448.615,31.944,31.944,0,0,0-6.525,1.919,25.572,25.572,0,0,0-5.757,3.3,13.634,13.634,0,0,0-3.992,4.76v56.957H412.9V291.95L423.5,291.8l4.3,8.291.153,6.754a30.983,30.983,0,0,1,9.979-11.053q6.6-4.606,17.2-4.606A43.379,43.379,0,0,1,461.266,291.643Z" fill="#353535"/>
    <path id="Path_1573" data-name="Path 1573" d="M504.325,368.145a45.476,45.476,0,0,1-15.1-2.615,41.8,41.8,0,0,1-13.375-7.623,38.5,38.5,0,0,1-9.565-12.328,41.09,41.09,0,0,1,.075-34.074A37.73,37.73,0,0,1,476,299.325a40.07,40.07,0,0,1,13.376-7.248,48.349,48.349,0,0,1,30.039,0,40.114,40.114,0,0,1,13.375,7.248,37.8,37.8,0,0,1,9.639,12.18,41.09,41.09,0,0,1,.075,34.074,38.566,38.566,0,0,1-9.564,12.328,41.691,41.691,0,0,1-13.451,7.623A46.122,46.122,0,0,1,504.325,368.145Zm0-75.62a18.6,18.6,0,0,0-11.283,3.438,28.571,28.571,0,0,0-7.772,8.592,41.039,41.039,0,0,0-4.558,11.209,47.734,47.734,0,0,0-1.495,11.433,50.963,50.963,0,0,0,1.57,13.674,45.078,45.078,0,0,0,4.932,12.18,27.69,27.69,0,0,0,7.92,8.668,18.212,18.212,0,0,0,10.686,3.288,17.642,17.642,0,0,0,10.461-3.288,29.838,29.838,0,0,0,7.995-8.668,42.407,42.407,0,0,0,5.081-12.18,55.674,55.674,0,0,0,1.719-13.674,50.173,50.173,0,0,0-1.42-11.433,40.824,40.824,0,0,0-4.409-11.209,27.362,27.362,0,0,0-7.77-8.592A19.452,19.452,0,0,0,504.325,292.525Z" fill="#90ce3e"/>
    <path id="Path_1574" data-name="Path 1574" d="M557.527,353.5a24.423,24.423,0,0,0,5.38,3.363,53.927,53.927,0,0,0,7.1,2.764,55.928,55.928,0,0,0,8.07,1.868,53.078,53.078,0,0,0,8.294.673,34.514,34.514,0,0,0,8.967-1.121,14.99,14.99,0,0,0,6.875-3.811,7.724,7.724,0,0,0,1.419-2.167,10.57,10.57,0,0,0,.9-3.287,10,10,0,0,0-.3-3.811,6.758,6.758,0,0,0-2.316-3.437,26.317,26.317,0,0,0-7.548-4.783q-4.258-1.793-8.817-3.213t-9.116-2.84a43,43,0,0,1-8.294-3.511,21.53,21.53,0,0,1-9.117-8.893,19.84,19.84,0,0,1-2.241-10.76,20.065,20.065,0,0,1,3.811-10.162,20.871,20.871,0,0,1,8.892-7.1,34.219,34.219,0,0,1,7.248-2.017,49.4,49.4,0,0,1,8.294-.673,57.163,57.163,0,0,1,15.692,2.167,27.005,27.005,0,0,1,11.956,6.5l-2.69,2.989a29.776,29.776,0,0,0-11.731-5.754,55.614,55.614,0,0,0-13.077-1.569,20.6,20.6,0,0,0-10.686,2.616,12.466,12.466,0,0,0-5.753,6.351,9.276,9.276,0,0,0,.9,7.846q2.242,4.113,9.416,6.949,3.884,1.5,7.173,2.541t6.351,1.868q3.061.823,5.9,1.719a52.729,52.729,0,0,1,5.53,2.092q7.173,3.439,10.162,8.817a19.458,19.458,0,0,1,2.615,10.91,21.546,21.546,0,0,1-3.511,10.386,19.548,19.548,0,0,1-8.22,7.248,35.156,35.156,0,0,1-8.817,2.84,52.677,52.677,0,0,1-9.714.9,55.216,55.216,0,0,1-17.411-2.84,35.746,35.746,0,0,1-13.973-8.07Z" fill="#90ce3e"/>
    <g id="Group_762" data-name="Group 762">
      <g id="Group_760" data-name="Group 760">
        <path id="Path_1575" data-name="Path 1575" d="M512.141,310.935c-3.418,1.983-12.988,8.192-12.517,18.682.4,8.917,3.746,13.229,3.746,13.229a28.592,28.592,0,0,0,13.926-6.525c4.795-4.406,7.445-10.258,5.682-18.623s-1.005-11.841-1.005-11.841S515.778,308.826,512.141,310.935Z" fill="#fff"/>
        <path id="Path_1576" data-name="Path 1576" d="M522.978,317.7a58.869,58.869,0,0,1-1.005-11.841c-3.984,4.441-7.857,11.188-10.793,16.419a62.281,62.281,0,0,0-4.96,11.493c-.676,2.108-1.325,4.221-1.911,6.357-.239.871-.459,1.788-.73,2.688a28.524,28.524,0,0,0,13.717-6.493C522.091,331.915,524.741,326.063,522.978,317.7Z" fill="#fff"/>
      </g>
      <g id="Group_761" data-name="Group 761">
        <path id="Path_1577" data-name="Path 1577" d="M503.1,344.09s3.747-15.159,11.256-27.339" fill="#aad13d"/>
        <path id="Path_1578" data-name="Path 1578" d="M502.13,343.851c.714-2.424,1.519-4.763,2.385-7.1s1.807-4.635,2.811-6.907,2.092-4.5,3.25-6.7,2.439-4.318,3.78-6.394c-1.2,2.164-2.335,4.356-3.332,6.614s-1.938,4.534-2.77,6.852-1.616,4.651-2.317,7.008-1.339,4.744-1.866,7.1Z" fill="#aad13d"/>
      </g>
    </g>
    <g id="Group_764" data-name="Group 764" opacity="0.07">
      <g id="Group_763" data-name="Group 763">
        <path id="Path_1579" data-name="Path 1579" d="M485.456,336.995c-.673,4.577-1.953,17.868,8,25.078,8.46,6.128,14.849,6.2,14.849,6.2s4.841-8.107,4.165-17.514c-.548-7.6-3.977-14.292-12.927-18.771s-11.583-7.7-11.583-7.7S486.173,332.127,485.456,336.995Z"/>
        <path id="Path_1580" data-name="Path 1580" d="M499.545,331.99a69.08,69.08,0,0,1-11.583-7.7c1.169,6.885,4.53,15.347,7.187,21.846a72.76,72.76,0,0,0,6.917,12.917c1.441,2.154,2.9,4.289,4.432,6.381.624.853,1.305,1.724,1.932,2.627.748-1.338,4.655-8.786,4.042-17.3C511.924,343.159,508.495,336.469,499.545,331.99Z"/>
      </g>
      <path id="Path_1581" data-name="Path 1581" d="M509.251,369.429S498.09,354.954,492.4,339.2" stroke="#82d33c" stroke-miterlimit="10" stroke-width="4"/>
    </g>
    <g id="Group_766" data-name="Group 766">
      <g id="Group_765" data-name="Group 765">
        <path id="Path_1582" data-name="Path 1582" d="M484.486,336.995c-.673,4.577-1.953,17.868,8,25.078,8.46,6.128,14.849,6.2,14.849,6.2s4.84-8.107,4.165-17.514c-.548-7.6-3.978-14.292-12.927-18.771s-11.583-7.7-11.583-7.7S485.2,332.127,484.486,336.995Z" fill="#fff"/>
        <path id="Path_1583" data-name="Path 1583" d="M498.575,331.99a69,69,0,0,1-11.583-7.7c1.168,6.885,4.53,15.347,7.186,21.846a72.825,72.825,0,0,0,6.917,12.917c1.441,2.154,2.9,4.289,4.433,6.381.624.853,1.3,1.724,1.932,2.627.748-1.338,4.654-8.786,4.042-17.3C510.954,343.159,507.524,336.469,498.575,331.99Z" fill="#fff"/>
      </g>
      <path id="Path_1584" data-name="Path 1584" d="M507.489,370.039c-1.706-2.4-3.276-4.837-4.8-7.323s-2.952-5.013-4.314-7.579-2.628-5.182-3.806-7.832-2.2-5.367-3.145-8.1c1.1,2.68,2.266,5.324,3.6,7.889s2.718,5.094,4.225,7.553,3.063,4.886,4.7,7.254,3.349,4.7,5.124,6.92Z" fill="#90ce3e"/>
    </g>
  </g>
</svg>
