<svg xmlns="http://www.w3.org/2000/svg" width="26" height="15.167" viewBox="0 0 26 15.167">
  <g id="icon_main_menu" data-name="icon main menu" transform="translate(99 -1835) rotate(90)">
    <path id="icon_menu" data-name="icon menu" d="M6.5,24.917V1.084a1.084,1.084,0,1,1,2.167,0V24.917a1.084,1.084,0,1,1-2.167,0ZM0,18.72V1.084a1.083,1.083,0,1,1,2.166,0V18.72A1.083,1.083,0,1,1,0,18.72Zm13-3.727V1.084a1.084,1.084,0,1,1,2.167,0v13.91a1.084,1.084,0,1,1-2.167,0Z" transform="translate(1835 73)" fill="#fff"/>
  </g>
</svg>
