<svg fill='blue' version="1.1" id="Layer_1" xmlns="http://www.w3.org/2000/svg" xmlns:xlink="http://www.w3.org/1999/xlink" x="0px" y="0px"
	 width="100px" height="100px" viewBox="0 0 100 100" enable-background="new 0 0 100 100" xml:space="preserve">
<circle cx="49.999" cy="14.169" r="7.169"/>
<path  d="M52.592,23.75h-5.246c-7.417,0-14.197,1.732-14.197,5.376v20.235c0,0.001,0,0.001,0,0.002v1.048v3.271
	c0,1.682,1.367,3.049,3.052,3.049c0.665,0,1.277-0.213,1.777-0.571c0.771-0.556,1.271-1.458,1.271-2.478v-0.649V34.687h1.325v20.967
	v0.962v0.606v0.78v32.806c0,2.315,1.876,4.191,4.192,4.191h0.377c2.316,0,4.191-1.876,4.191-4.191V60.002h1.327v30.807
	c0,2.315,1.873,4.191,4.19,4.191h0.379c2.314,0,4.189-1.876,4.189-4.191V58.434v-0.431v-0.78v-0.606V34.688h1.326v14.675v3.668
	v0.648c0,1.014,0.492,1.909,1.248,2.463c0.508,0.373,1.127,0.59,1.803,0.59c1.684,0,3.053-1.367,3.053-3.053v-0.65V49.98v-0.619
	V29.557C66.852,25.781,60.072,23.75,52.592,23.75z"/>
</svg>
