<svg fill='orange' xmlns="http://www.w3.org/2000/svg" xmlns:xlink="http://www.w3.org/1999/xlink" height="512px" id="Layer_1" style="enable-background:new 0 0 512 512;" version="1.1" viewBox="0 0 512 512" width="512px" xml:space="preserve"><g><path d="M190.4,148.6L161,252.9c-6.3,22.8,20.7,31.7,27.3,10.3l26.3-96.2h7.4l-45.2,169H219v127c0,23,32,23,32,0V336h10v127   c0,23,31,23,31,0V336h43.4l-46.2-169h8.4l26.3,96.2c6.5,21.9,33.3,12.5,27.3-10.2l-29.4-104.4c-4-11.8-18.2-32.6-42-33.6h-47.3   C207.9,116,193.8,136.6,190.4,148.6z"/><path d="M292.6,69.2c0-20.6-16.4-37.3-36.6-37.3c-20.2,0-36.6,16.7-36.6,37.3c0,20.6,16.4,37.3,36.6,37.3   C276.2,106.5,292.6,89.8,292.6,69.2z"/></g>
	<metadata>
		<rdf:RDF xmlns:rdf="http://www.w3.org/1999/02/22-rdf-syntax-ns#" xmlns:rdfs="http://www.w3.org/2000/01/rdf-schema#" xmlns:dc="http://purl.org/dc/elements/1.1/">
			<rdf:Description about="https://iconscout.com/legal#licenses" dc:title="Woman, Female, Person, Avatar, User" dc:description="Woman, Female, Person, Avatar, User" dc:publisher="Iconscout" dc:date="2016-12-14" dc:format="image/svg+xml" dc:language="en">
				<dc:creator>
					<rdf:Bag>
						<rdf:li>Google Inc.</rdf:li>
					</rdf:Bag>
				</dc:creator>
			</rdf:Description>
		</rdf:RDF>
    </metadata>
</svg>
