<svg xmlns="http://www.w3.org/2000/svg" width="31.25" height="21.88" viewBox="0 0 31.25 21.88">
  <path id="_003-youtube" data-name="003-youtube" d="M30.606-2.658a3.915,3.915,0,0,0-2.754-2.755c-2.445-.669-12.227-.669-12.227-.669s-9.781,0-12.227.644A3.994,3.994,0,0,0,.644-2.658,41.252,41.252,0,0,0,0,4.858a41.1,41.1,0,0,0,.644,7.516A3.916,3.916,0,0,0,3.4,15.129c2.471.669,12.227.669,12.227.669s9.781,0,12.227-.644A3.915,3.915,0,0,0,30.606,12.4a41.265,41.265,0,0,0,.643-7.516A39.159,39.159,0,0,0,30.606-2.658Zm-18.1,12.2V.173l8.134,4.685Zm0,0" transform="translate(0 6.082)" fill="#fff"/>
</svg>
